<svg id="Layer_1" data-name="Layer 1" xmlns="http://www.w3.org/2000/svg" viewBox="0 0 441 143.5"><defs><style>.cls-1{fill:#fff;}</style></defs><title>Artboard 1</title><path class="cls-1" d="M189.36,47.64H173.9a.76.76,0,0,0-.76.76v39c0,5.83-2.73,8.8-7,8.8-3.56,0-6.26-1.91-9.06-5.2a.76.76,0,0,0-1.11-.07L146,100.49a.76.76,0,0,0-.09,1c4.32,5.74,10.84,10,21.24,10,7,0,12.84-2.24,16.89-6.37s6.07-9.78,6.07-17.68V48.4A.76.76,0,0,0,189.36,47.64Z"/><path class="cls-1" d="M216.68,61.2A46.94,46.94,0,0,0,198,64.73a.68.68,0,0,0-.39.81l3.06,10.73a.67.67,0,0,0,.89.44A32.47,32.47,0,0,1,214,74.3c6.42,0,9.5,2.87,9.5,7.9V83A35.85,35.85,0,0,0,212,81.12c-11.17,0-18.65,5.21-18.65,15.26v.18c0,9.69,6.95,15,16,15a17.79,17.79,0,0,0,14-6.1v4.35a.67.67,0,0,0,.67.67h15.19a.67.67,0,0,0,.67-.67V82.56c0-6.82-1.5-11.85-5.1-15.44C231,63.26,225.21,61.2,216.68,61.2Zm6.95,31.68c0,4.85-3.43,8-8.27,8-3.43,0-5.89-2-5.89-5.3v-.18c0-3.59,2.82-6,7.65-6a17.21,17.21,0,0,1,6.51,1.26Z"/><path class="cls-1" d="M305.43,60.84c-6.95,0-11.79,3.05-15.92,7.9-2.55-5-7.39-7.9-13.72-7.9-6.69,0-11.08,3.68-14.16,7.72V62.63a.72.72,0,0,0-.72-.72H245.63a.72.72,0,0,0-.72.72v47.13a.72.72,0,0,0,.72.72h15.28a.72.72,0,0,0,.72-.72V84.08c0-5.3,2.81-8.08,6.77-8.08s6.51,2.78,6.51,8.08v25.67a.72.72,0,0,0,.72.72h15.28a.72.72,0,0,0,.72-.72V84.08c0-5.3,2.9-8.08,6.86-8.08S305,78.79,305,84.08v25.67a.72.72,0,0,0,.72.72H321a.72.72,0,0,0,.72-.72V78.61C321.71,67.3,315.55,60.84,305.43,60.84Z"/><rect class="cls-1" x="327.16" y="61.91" width="16.71" height="48.56" rx="0.76" ry="0.76"/><rect class="cls-1" x="326.8" y="44.95" width="17.42" height="12.57" rx="0.76" ry="0.76"/><path class="cls-1" d="M424.22,61.91H408.76a.78.78,0,0,0-.75.55l-8.8,28.71-9.32-28.72a.78.78,0,0,0-.75-.54L369,62v-.76c0-3.14,1.67-4.58,4.75-4.58a19.33,19.33,0,0,1,5.28.7.78.78,0,0,0,1-.76V46.26a.78.78,0,0,0-.56-.75,36.9,36.9,0,0,0-10.35-1.18c-5.63,0-9.5,1.26-12.4,4.22s-4,7-4,12.57v.67H347.9a.78.78,0,0,0-.78.78V74.78a.78.78,0,0,0,.78.78h4.76v34.13a.78.78,0,0,0,.78.78h15.07a.78.78,0,0,0,.78-.78V75.56h8.25l13.31,34a4.15,4.15,0,0,1-3.87,2,15,15,0,0,1-6.54-2.16.78.78,0,0,0-1.11.36l-4.55,10.48a.79.79,0,0,0,.34,1,30.09,30.09,0,0,0,14.68,3.87c9.5,0,14-4.49,18.12-15.8L425,63A.78.78,0,0,0,424.22,61.91Z"/><path class="cls-1" d="M130.87,32.84A44.79,44.79,0,0,0,117.31,21a43.49,43.49,0,0,0-49.62,4.69,43.28,43.28,0,0,0-15,29c-.12,1.3-.17,2.6-.17,3.9A34.87,34.87,0,0,0,19.57,73.82a35.28,35.28,0,0,0-5.09,27.73,36.33,36.33,0,0,0,6.14,13.31,32.18,32.18,0,0,0,25.05,13,37.86,37.86,0,0,0,25.13-8.93A33.68,33.68,0,0,0,82.31,99a42.48,42.48,0,0,0,36.49-5.27,46.6,46.6,0,0,0,19-26.89,40,40,0,0,0-6.92-34ZM81.44,96.59c-.07.4-.16.79-.25,1.19a36.64,36.64,0,0,1-7.26-3.33A37.29,37.29,0,0,1,56.62,70.2a36.3,36.3,0,0,1-.78-7.38A29.17,29.17,0,0,1,80.92,84.47,29,29,0,0,1,81.44,96.59ZM77,107.74a30.28,30.28,0,0,1-8.33,8.33,25.61,25.61,0,0,1-10.75,4,26.57,26.57,0,0,1-11-.91,31.61,31.61,0,0,1-9.38-4.62,34,34,0,0,1-7.24-7A27.66,27.66,0,0,1,24.7,88.53,28.15,28.15,0,0,1,43.53,64.22a29,29,0,0,1,9.19-1.56A42.3,42.3,0,0,0,81,98.56,30.24,30.24,0,0,1,77,107.74Zm48.63-28.4A33.07,33.07,0,0,1,116.73,91a38.48,38.48,0,0,1-13.18,7.1,36.34,36.34,0,0,1-21.1.11c.07-.47.13-.94.18-1.41a34.69,34.69,0,0,0-6.1-23.91A34.26,34.26,0,0,0,56,59.25a38.88,38.88,0,0,1,.55-3.94A36.09,36.09,0,0,1,72.45,32a35.92,35.92,0,0,1,26.24-5,35.45,35.45,0,0,1,21.75,13.67,42.27,42.27,0,0,1,6,11.55,39.86,39.86,0,0,1,2.17,13.3A34.45,34.45,0,0,1,125.61,79.34Z"/><path class="cls-1" d="M105,66.9c-.49-1.13-1-2.24-1.56-3.36s-1.17-2.18-1.78-3.26-1.34-2.08-2-3.11A47.65,47.65,0,0,0,89.36,46.51a40.27,40.27,0,0,0-13-6.67A.66.66,0,0,0,75.74,41a106.67,106.67,0,0,1,10.78,8.86,77.2,77.2,0,0,1,9,10.23l1.94,2.8,1.81,2.89c.55,1,1.12,2,1.65,3s1,2,1.53,3.07A88.58,88.58,0,0,1,107.25,85a.66.66,0,0,0,1.29-.16,43.56,43.56,0,0,0-2.27-14.44C105.87,69.21,105.43,68.06,105,66.9Z"/><path class="cls-1" d="M49.94,107.4a88,88,0,0,1-7.05-8.19,85,85,0,0,1-6-9c-1.81-3.13-3.42-6.39-5-9.74a.65.65,0,0,0-1.24.4,46.25,46.25,0,0,0,3.54,10.72,54.23,54.23,0,0,0,5.85,9.73,53.3,53.3,0,0,0,7.76,8.29,45.11,45.11,0,0,0,9.37,6.31.66.66,0,0,0,.72-1.08C55.15,112.43,52.46,110,49.94,107.4Z"/><path class="cls-1" d="M80.29,56.5A31.19,31.19,0,0,0,70,51.23a.66.66,0,0,0-.55,1.18,83.6,83.6,0,0,1,8.65,6.75,56.45,56.45,0,0,1,7.29,7.93,49.92,49.92,0,0,1,5.48,9.31,57.34,57.34,0,0,1,3.52,10.4.66.66,0,0,0,.65.5.65.65,0,0,0,.64-.66,39.06,39.06,0,0,0-7.32-21.7A38,38,0,0,0,80.29,56.5Z"/><path class="cls-1" d="M62.08,101.4l-1.68-1.49-1.61-1.56A63.64,63.64,0,0,1,48,84.12,75.19,75.19,0,0,1,44.17,76a.65.65,0,0,0-1.24.38,41,41,0,0,0,3,8.82A45.37,45.37,0,0,0,57.2,100L59,101.53l1.87,1.4c1.3.86,2.6,1.71,4,2.43a.65.65,0,0,0,.72-1.08h0q-.88-.73-1.77-1.41Z"/></svg>